<svg id="Layer_1" data-name="Layer 1" xmlns="http://www.w3.org/2000/svg" viewBox="0 0 1080 1080"><defs><style>.cls-1{fill:#242f57;}.cls-2{fill:#acc4ed;}.cls-11,.cls-3{fill:#fff;}.cls-4{fill:#7ee8d9;}.cls-5{fill:#909ba0;}.cls-6{fill:#2e4661;}.cls-7{fill:#272525;opacity:0.12;}.cls-8{fill:none;stroke:#59595b;stroke-miterlimit:10;stroke-width:36px;}.cls-9{fill:#b3d1e2;opacity:0.1;}.cls-10{opacity:0.22;}.cls-11{opacity:0.31;}.cls-12{fill:#a36652;}.cls-13{fill:#6a8678;}</style></defs><title>favCionFavIcon</title><g id="right_1" data-name="right 1"><path class="cls-1" d="M480.76,283.91V787.39a2.7,2.7,0,0,1-3.94,2.35l-4.09-2.11,0,0-.06,0-14-7.21-17.56-9.07-38.92-20.1h0L386,742.88a.11.11,0,0,1-.09,0L365,732H276.51a345.84,345.84,0,0,1-79.27-65.22q-10.59-11.73-19.86-24.16a341.57,341.57,0,0,1-67.94-186.57V417.74a343.48,343.48,0,0,1,29-120.7V268.3h14.42A335.71,335.71,0,0,1,177.16,231H429.1a50.73,50.73,0,0,1,26.21,7c1,.61,2,1.25,3,1.9C472.7,249.84,480.76,266.52,480.76,283.91Z"/><path class="cls-2" d="M457.51,747.58l-1.52-1L387.07,702H234a339.4,339.4,0,0,1-36.78-35.22q-10.59-11.73-19.86-24.16a340,340,0,0,1-38.92-66.2V268.3H411.93a42.62,42.62,0,0,1,25.48,8.06A45.35,45.35,0,0,1,455,303.58a50,50,0,0,1,1.16,10.66Z"/><path class="cls-3" d="M454.73,314V642.62H177.38a340,340,0,0,1-38.92-66.2V268.3h270.6A45.67,45.67,0,0,1,454.73,314Z"/><path class="cls-1" d="M769.53,514.28a351.93,351.93,0,0,1-20.75,64.79,339.88,339.88,0,0,1-23.7,45.58H560.62c-65.35,0-60.12,35.9-60.12,35.9V784.88a21.64,21.64,0,0,1-28.44,3l-.29-.22,0,0-.06,0-10.35-7.27-5.26-3.73s0-1.83,0-5.31c0-3.82,0-9.59-.08-17.08,0-1.34,0-2.75,0-4.18,0-1.1,0-2.23,0-3.4-.35-80.52-1.27-304.85-1-443,.06-25.2.18-47.5.32-65.59.15-18.91.38-33.17.67-41.15,0-1.19.06-2.23.11-3.11a64.62,64.62,0,0,1,16.19-39.84,87.23,87.23,0,0,1,16.16-14.39A82.78,82.78,0,0,1,509,129.11c.89-.3,1.79-.58,2.68-.85a86.38,86.38,0,0,1,24.83-3.61h52.72a316.38,316.38,0,0,1,55.41,34.53,332.13,332.13,0,0,1,49.68,47.47q9,10.53,16.94,21.6h26.22c5.52,0,10,4.73,10,10.57v12c0,5.84-4.48,10.57-10,10.57h-5C776,338.74,788,429.66,769.53,514.28Z"/><path class="cls-4" d="M504.47,604.34v2.35A16,16,0,0,1,504.47,604.34Z"/><path class="cls-2" d="M769.61,514.09A355.72,355.72,0,0,1,749.06,579H538.13c-29.74,0-33.32,18.64-33.66,25.32V196.52c0-14.54,7.76-27.67,19.63-33.79h0a33.24,33.24,0,0,1,6.19-2.45,61.12,61.12,0,0,1,9.07-1.78l.94-.09c1.84-.15,2.95-.15,2.95-.15H645.93a330.88,330.88,0,0,1,49.2,47.57c5.93,7,11.51,14.23,16.78,21.64h26c5.47,0,9.9,4.75,9.9,10.59v12c0,5.85-4.43,10.6-9.9,10.6h-5C776,338.2,787.93,429.3,769.61,514.09Z"/><path class="cls-3" d="M504.47,535.66v2A11.59,11.59,0,0,1,504.47,535.66Z"/><path class="cls-3" d="M757.76,514.23H536.63c-28.42,0-31.83,15.77-32.16,21.43v-345A32.35,32.35,0,0,1,529.16,160a58.86,58.86,0,0,1,8.67-1.47l.9-.09c1.75-.15,2.82-.15,2.82-.15h98.06a322.87,322.87,0,0,1,47,47.59q8.49,10.56,16,21.65h24.8c5.22,0,9.46,4.75,9.46,10.59v12c0,5.85-4.24,10.6-9.46,10.6h-4.73C763.89,338.26,775.27,429.4,757.76,514.23Z"/><rect class="cls-1" x="200.61" y="335.98" width="207.18" height="33.15" rx="3.46"/><rect class="cls-1" x="556.96" y="413.33" width="207.18" height="33.15" rx="3.46"/><rect class="cls-1" x="556.96" y="319.4" width="207.18" height="33.15" rx="3.46"/><path class="cls-1" d="M744.31,238.82v12c0,5.84-4.28,10.57-9.56,10.57H566.51c-5.28,0-9.56-4.73-9.56-10.57v-12c0-5.2,3.4-9.53,7.87-10.39a8,8,0,0,1,1.69-.18H734.75C740,228.25,744.31,233,744.31,238.82Z"/><rect class="cls-1" x="200.61" y="429.9" width="207.18" height="33.15" rx="3.46"/><rect class="cls-1" x="225.03" y="511.68" width="186.31" height="29.81" rx="3.46"/><path class="cls-1" d="M255.47,702H135V586c10,5.4,20,10.93,29.79,16.71l.85.49c3.86,2.27,7.73,4.6,11.53,7h-8.05c4.25,8.17,9.07,15.84,16.05,21.8,10.14,8.69,23.92,12.81,32.87,22.75,3.78,4.19,6.66,9.36,11.48,12.27,2.65,1.6,5.78,2.41,8.28,4.21h0a78.81,78.81,0,0,0,5.09,12.47A107.56,107.56,0,0,0,255.47,702Z"/><path class="cls-2" d="M237.82,671.19h-73V602.66l.85.49c3.86,2.27,7.73,4.6,11.53,7h-8.05c4.25,8.17,9.07,15.84,16.05,21.8,10.14,8.69,23.92,12.81,32.87,22.75,3.78,4.19,6.66,9.36,11.48,12.27C232.19,668.58,235.32,669.39,237.82,671.19Z"/><path class="cls-3" d="M177.19,610.16H164.81v-7.5l.85.49C169.52,605.42,173.39,607.75,177.19,610.16Z"/><path class="cls-1" d="M836,150.3V588.82H744a237.67,237.67,0,0,0,21.63-40,272.7,272.7,0,0,0,17-56.82,307,307,0,0,0,5.22-53.21c.65-58.61-14.13-116.53-35.82-171-9.14-23-19.72-45.71-35.57-64.66-6.73-8.07-14.33-15.31-21.93-22.61s-15.17-14.66-21.78-22.85c-1.94-2.42-3.81-4.95-5.75-7.42Z"/><path class="cls-2" d="M808.1,180.57V548.83H765.61a272.7,272.7,0,0,0,17-56.82,307,307,0,0,0,5.22-53.21c.65-58.61-14.13-116.53-35.82-171-9.14-23-19.72-45.71-35.57-64.66-6.73-8.07-14.33-15.31-21.93-22.61Z"/><path class="cls-3" d="M808.1,180.57V492H782.65a307,307,0,0,0,5.22-53.21c.65-58.61-14.13-116.53-35.82-171-9.14-23-19.72-45.71-35.57-64.66-6.73-8.07-14.33-15.31-21.93-22.61Z"/><rect class="cls-1" x="730.48" y="232.21" width="38.09" height="29.07" rx="3.46"/><rect class="cls-5" x="707.75" y="630.82" width="121" height="292.14" transform="translate(-322.53 713.92) rotate(-42.02)"/><path class="cls-6" d="M930.12,955.52l-1,.93c-28.36,25.55-59.32,37.41-69.16,26.49L745.52,859.67l105.53-97.22,112.6,127C973.48,900.41,958.47,930,930.12,955.52Z"/><polygon class="cls-7" points="685.24 771.79 691.55 781.11 819.22 744.36 766.25 683.25 685.24 771.79"/><path class="cls-8" d="M787.44,514.28a338.51,338.51,0,0,1-21.93,64.79,333.09,333.09,0,0,1-25,45.58A344.39,344.39,0,0,1,503.09,776.7q-11.13,1.69-22.33,2.56-9.52.82-19.06,1c-1,0-2.05.06-3.06.06A343.76,343.76,0,0,1,276.51,732a345.84,345.84,0,0,1-79.27-65.22q-10.59-11.73-19.86-24.16a341.57,341.57,0,0,1-67.94-186.57,330.83,330.83,0,0,1,0-38.31,343.48,343.48,0,0,1,29-120.7q6.47-14.66,14.42-28.74A335.71,335.71,0,0,1,177.16,231a344.81,344.81,0,0,1,45.37-49.65c105.36-94.91,253.28-112.6,374.35-56.7a337.63,337.63,0,0,1,58.56,34.53A343.63,343.63,0,0,1,708,206.65q9.48,10.53,17.9,21.6a330.14,330.14,0,0,1,22.42,33.14A343.53,343.53,0,0,1,787.44,514.28Z"/><circle class="cls-9" cx="449.6" cy="436.72" r="318.77"/><g class="cls-10"><path class="cls-3" d="M239,362.33c26.07-96.46,113.4-165.45,213.69-165.52,100-.08,189,69.59,213.88,166.48,7,27.31,49.87,18.46,42.86-8.89C680.9,242.86,584.11,161.6,469.32,153.59c-113.14-7.9-218.1,61.18-261.64,164.61A242.63,242.63,0,0,0,197.33,349c-7.33,27.14,34.33,40.63,41.71,13.3Z"/></g><circle class="cls-11" cx="696.25" cy="441.77" r="28.83" transform="translate(88.79 999.36) rotate(-74.94)"/><path class="cls-12" d="M754.23,869.3l99.44-93.56a9.16,9.16,0,0,0,1-12.22l-.93-1.21a9.14,9.14,0,0,0-13.58-1l-98.64,94.64a9.14,9.14,0,0,0-.14,13.05l.13.13A9.13,9.13,0,0,0,754.23,869.3Z"/><path class="cls-13" d="M752.18,525A319.13,319.13,0,0,1,618.5,704.43c-64,41.06-141.22,57.24-216.34,46.77-76.8-10.71-147.62-51.29-197.42-110.33C156.23,583.36,130.23,508.66,131,433.61c.76-77.82,31.56-154.09,84.29-211.17,50.79-55,121.27-90.74,195.59-99.5,77.59-9.14,156.71,11.67,220.49,56.51,61.42,43.18,105.26,108.89,123.73,181.42,13.72,53.86,12.22,110.74-2.89,164.13-3,10.56,13.38,15.26,16.37,4.69a337.48,337.48,0,0,0-14.19-223.76c-29.3-69.24-83.12-127.21-149.26-162.66-68.61-36.76-149.09-48-225.22-32.45-73.18,14.91-140.44,55.69-188.3,112.86-50,59.75-77.47,136.49-77.67,214.34-.2,75.22,26.51,148.74,72.86,207.68,47.66,60.59,116.91,102.44,192.09,118.52,74.55,15.94,152.93,5,220.81-29.4,82-41.5,143.29-117.13,168.88-205.13C771.62,519.15,755.25,514.45,752.18,525Z"/></g></svg>