<svg id="Layer_1" data-name="Layer 1" xmlns="http://www.w3.org/2000/svg" viewBox="0 0 765.43 765.43"><defs><style>.cls-1{fill:#242f57;}.cls-2{fill:#acc4ed;}.cls-11,.cls-3{fill:#fff;}.cls-4{fill:#7ee8d9;}.cls-5{fill:#909ba0;}.cls-6{fill:#2e4661;}.cls-7{fill:#272525;opacity:0.12;}.cls-8{fill:none;stroke:#59595b;stroke-miterlimit:10;stroke-width:11px;}.cls-9{fill:#b3d1e2;opacity:0.1;}.cls-10{opacity:0.22;}.cls-11{opacity:0.31;}.cls-12{fill:#a36652;}.cls-13{fill:#6a8678;}</style></defs><title>Artboard 2 copy 2</title><g id="right_1" data-name="right 1"><path class="cls-1" d="M360.39,292.42V469.94a1,1,0,0,1-1.39.83l-1.45-.74h0l-4.93-2.55-6.2-3.19-13.72-7.09h0L327,454.25h0l-7.39-3.83H288.37a119.06,119.06,0,0,1-15-10.57,120.26,120.26,0,0,1-13-12.42q-3.74-4.14-7-8.52a120.52,120.52,0,0,1-23.95-65.79v-13.5a121.19,121.19,0,0,1,10.23-42.56V286.91h5.09a117.85,117.85,0,0,1,8.56-13.15h88.83a17.79,17.79,0,0,1,9.24,2.47c.36.21.72.44,1,.67A18.79,18.79,0,0,1,360.39,292.42Z"/><path class="cls-2" d="M352.19,455.91l-.54-.35-24.3-15.72h-54a120.26,120.26,0,0,1-13-12.42q-3.74-4.14-7-8.52a120.11,120.11,0,0,1-13.72-23.35V286.91h96.43a15,15,0,0,1,9,2.85,16,16,0,0,1,6.2,9.59,18.19,18.19,0,0,1,.4,3.76Z"/><path class="cls-3" d="M351.21,303V418.9h-97.8a120.11,120.11,0,0,1-13.72-23.35V286.91h95.42A16.11,16.11,0,0,1,351.21,303Z"/><path class="cls-1" d="M462.21,373.64a124.85,124.85,0,0,1-7.32,22.85,120.14,120.14,0,0,1-8.36,16.07h-58c-23,0-21.19,12.66-21.19,12.66v43.84a7.63,7.63,0,0,1-10,1l-.1-.07h0l-3.64-2.57-1.86-1.31s0-.65,0-1.88,0-3.38,0-6c0-.47,0-1,0-1.47s0-.79,0-1.2c-.12-28.39-.45-107.49-.34-156.21,0-8.88.07-16.75.12-23.12,0-6.67.13-11.7.23-14.51,0-.42,0-.79,0-1.1a22.82,22.82,0,0,1,5.71-14.05,30.8,30.8,0,0,1,5.7-5.07,29.07,29.07,0,0,1,7.25-3.66c.32-.11.63-.21,1-.3a30.08,30.08,0,0,1,8.75-1.28h18.59a111.49,111.49,0,0,1,19.54,12.18,116.42,116.42,0,0,1,17.52,16.74q3.17,3.7,6,7.61h9.24a3.63,3.63,0,0,1,3.53,3.73v4.23a3.63,3.63,0,0,1-3.53,3.73h-1.76A127.1,127.1,0,0,1,462.21,373.64Z"/><path class="cls-4" d="M368.75,405.4v.83A4.49,4.49,0,0,1,368.75,405.4Z"/><path class="cls-2" d="M462.23,373.58A125,125,0,0,1,455,396.47H380.61c-10.48,0-11.74,6.58-11.86,8.93V261.61a13.33,13.33,0,0,1,6.92-11.92h0a11.11,11.11,0,0,1,2.18-.86,21.15,21.15,0,0,1,3.2-.63l.33,0c.65-.06,1-.06,1-.06h36.19A116.66,116.66,0,0,1,436,264.89q3.13,3.72,5.92,7.63H451a3.61,3.61,0,0,1,3.49,3.73v4.24a3.62,3.62,0,0,1-3.49,3.74H449.3A128.69,128.69,0,0,1,462.23,373.58Z"/><path class="cls-3" d="M368.75,381.18v.71A3.3,3.3,0,0,1,368.75,381.18Z"/><path class="cls-3" d="M458.06,373.63h-78c-10,0-11.22,5.56-11.33,7.55V259.53a11.11,11.11,0,0,1,6.31-9.94,10.47,10.47,0,0,1,2.39-.87,21.22,21.22,0,0,1,3.06-.52l.32,0c.61-.06,1-.06,1-.06H416.4A114,114,0,0,1,433,264.89c2,2.49,3.88,5,5.65,7.64h8.74a3.55,3.55,0,0,1,3.34,3.73v4.25a3.55,3.55,0,0,1-3.34,3.73H445.7C460.22,311.58,464.23,343.72,458.06,373.63Z"/><rect class="cls-1" x="261.6" y="310.78" width="73.05" height="11.69" rx="3.46"/><rect class="cls-1" x="387.25" y="338.05" width="73.05" height="11.69" rx="3.46"/><rect class="cls-1" x="387.25" y="304.93" width="73.05" height="11.69" rx="3.46"/><path class="cls-1" d="M453.31,276.52v4.23a3.56,3.56,0,0,1-3.37,3.73H390.62a3.56,3.56,0,0,1-3.37-3.73v-4.23a3.63,3.63,0,0,1,2.78-3.66,2.32,2.32,0,0,1,.59-.07h59.32A3.56,3.56,0,0,1,453.31,276.52Z"/><rect class="cls-1" x="261.6" y="343.89" width="73.05" height="11.69" rx="3.46"/><rect class="cls-1" x="270.22" y="372.73" width="65.69" height="10.51" rx="3.46"/><path class="cls-1" d="M281,439.85H238.48V398.91c3.54,1.91,7,3.86,10.5,5.9l.3.17c1.36.8,2.73,1.62,4.07,2.47h-2.84a24.83,24.83,0,0,0,5.66,7.69c3.57,3.06,8.43,4.52,11.59,8,1.33,1.48,2.35,3.3,4.05,4.33.93.56,2,.85,2.92,1.48h0a27.06,27.06,0,0,0,1.79,4.4A38,38,0,0,0,281,439.85Z"/><path class="cls-2" d="M274.73,429H249V404.81l.3.17c1.36.8,2.73,1.62,4.07,2.47h-2.84a24.83,24.83,0,0,0,5.66,7.69c3.57,3.06,8.43,4.52,11.59,8,1.33,1.48,2.35,3.3,4.05,4.33C272.74,428.05,273.85,428.34,274.73,429Z"/><path class="cls-3" d="M253.35,407.45H249v-2.64l.3.17C250.64,405.78,252,406.6,253.35,407.45Z"/><path class="cls-1" d="M485.63,245.31V399.93H453.2a84.08,84.08,0,0,0,7.62-14.1,95.67,95.67,0,0,0,6-20A107.54,107.54,0,0,0,468.67,347c.23-20.66-5-41.09-12.63-60.28-3.22-8.1-7-16.11-12.54-22.8a100.18,100.18,0,0,0-7.73-8,87.23,87.23,0,0,1-7.68-8.06c-.68-.85-1.35-1.74-2-2.61Z"/><path class="cls-2" d="M475.8,256V385.83h-15a95.67,95.67,0,0,0,6-20A107.54,107.54,0,0,0,468.67,347c.23-20.66-5-41.09-12.63-60.28-3.22-8.1-7-16.11-12.54-22.8a100.18,100.18,0,0,0-7.73-8Z"/><path class="cls-3" d="M475.8,256V365.79h-9A107.54,107.54,0,0,0,468.67,347c.23-20.66-5-41.09-12.63-60.28-3.22-8.1-7-16.11-12.54-22.8a100.18,100.18,0,0,0-7.73-8Z"/><rect class="cls-1" x="448.44" y="274.19" width="13.43" height="10.25" rx="3.46"/><rect class="cls-5" x="440.42" y="414.74" width="42.66" height="103.01" transform="translate(-193.38 428.92) rotate(-42.02)"/><path class="cls-6" d="M518.83,529.23l-.37.32c-10,9-20.91,13.19-24.38,9.34l-40.34-43.46L491,461.15l39.7,44.79C534.12,509.79,528.83,520.22,518.83,529.23Z"/><polygon class="cls-7" points="432.48 464.44 434.71 467.73 479.73 454.77 461.05 433.23 432.48 464.44"/><path class="cls-8" d="M468.52,373.64a119.66,119.66,0,0,1-7.73,22.85A117.62,117.62,0,0,1,452,412.56a121.34,121.34,0,0,1-83.7,53.61q-3.93.6-7.87.91-3.36.29-6.72.36l-1.08,0a121.17,121.17,0,0,1-64.22-17,119.06,119.06,0,0,1-15-10.57,120.26,120.26,0,0,1-13-12.42q-3.74-4.14-7-8.52a120.52,120.52,0,0,1-23.95-65.79,116.92,116.92,0,0,1,0-13.5,121.19,121.19,0,0,1,10.23-42.56q2.28-5.18,5.09-10.14a117.85,117.85,0,0,1,8.56-13.15,121.43,121.43,0,0,1,148-37.5,121.13,121.13,0,0,1,39.16,28.92q3.35,3.7,6.32,7.61a117.5,117.5,0,0,1,7.9,11.69A121.06,121.06,0,0,1,468.52,373.64Z"/><circle class="cls-9" cx="350.46" cy="346.3" r="110.47"/><g class="cls-10"><path class="cls-3" d="M275.16,320.07c9.19-34,40-58.34,75.34-58.36s66.66,24.53,75.41,58.7c2.47,9.63,17.59,6.51,15.12-3.14a94.39,94.39,0,0,0-84.68-70.8c-39.89-2.79-76.9,21.57-92.25,58a84.6,84.6,0,0,0-3.65,10.87c-2.59,9.57,12.1,14.33,14.71,4.69Z"/></g><circle class="cls-11" cx="436.37" cy="348.08" r="10.16" transform="translate(-13.11 679.05) rotate(-74.94)"/><path class="cls-12" d="M463.81,510.83l35.06-33a3.2,3.2,0,0,0,.35-4.3l-.32-.43a3.23,3.23,0,0,0-4.79-.36l-34.78,33.37a3.21,3.21,0,0,0-.05,4.6l0,0A3.22,3.22,0,0,0,463.81,510.83Z"/><path class="cls-13" d="M456.09,377.42a111.74,111.74,0,0,1-123.42,79.76c-27.08-3.77-52.05-18.08-69.61-38.9A111.7,111.7,0,0,1,413.48,255.59c21.66,15.22,37.11,38.39,43.63,64a111.8,111.8,0,0,1-1,57.87c-1,3.73,4.72,5.39,5.77,1.66A117.69,117.69,0,1,0,231,346.76c-.07,26.52,9.35,52.44,25.7,73.22,16.8,21.37,41.22,36.12,67.73,41.79a118.31,118.31,0,0,0,77.85-10.36c28.91-14.64,50.53-41.3,59.55-72.33C462.94,375.36,457.17,373.71,456.09,377.42Z"/></g></svg>