<svg id="Layer_1" data-name="Layer 1" xmlns="http://www.w3.org/2000/svg" viewBox="0 0 1080 1080"><defs><style>.cls-1{fill:#195457;}.cls-2{fill:#45ddff;}.cls-19,.cls-3{fill:#fff;}.cls-4{fill:#7ee8d9;}.cls-5{font-size:102.98px;fill:#f7a827;letter-spacing:-0.04em;}.cls-5,.cls-9{font-family:Nominee-Bold, Nominee;font-weight:700;}.cls-6{letter-spacing:-0.03em;}.cls-7{letter-spacing:-0.05em;}.cls-8{letter-spacing:-0.03em;}.cls-9{font-size:108.66px;fill:#00446e;letter-spacing:-0.03em;}.cls-10{letter-spacing:-0.05em;}.cls-11{letter-spacing:-0.04em;}.cls-12{letter-spacing:-0.02em;}.cls-13{fill:#909ba0;}.cls-14{fill:#2e4661;}.cls-15{fill:#272525;opacity:0.12;}.cls-16{fill:none;stroke:#59595b;stroke-miterlimit:10;stroke-width:11px;}.cls-17{fill:#b3d1e2;opacity:0.1;}.cls-18{opacity:0.22;}.cls-19{opacity:0.31;}.cls-20{fill:#a36652;}.cls-21{fill:#6a8678;}</style></defs><title>Artboard 2</title><path class="cls-1" d="M334.54,450.41V615.22a.88.88,0,0,1-1.29.77l-1.34-.69h0l-4.58-2.36-5.75-3-12.74-6.58h0l-5.27-2.72h0l-6.86-3.55h-29a110.47,110.47,0,0,1-13.91-9.82,111.59,111.59,0,0,1-12-11.53q-3.47-3.84-6.5-7.91A111.82,111.82,0,0,1,213,506.76V494.22a112.46,112.46,0,0,1,9.5-39.51V445.3h4.72a110,110,0,0,1,7.95-12.21h82.47a16.6,16.6,0,0,1,8.58,2.29c.33.2.66.41,1,.62A17.43,17.43,0,0,1,334.54,450.41Z"/><path class="cls-2" d="M326.93,602.19l-.5-.32-22.56-14.6h-50.1a111.59,111.59,0,0,1-12-11.53q-3.47-3.84-6.5-7.91a111.24,111.24,0,0,1-12.74-21.67V445.3H312a14,14,0,0,1,8.34,2.64,14.85,14.85,0,0,1,5.75,8.91,16.29,16.29,0,0,1,.38,3.49Z"/><path class="cls-3" d="M326,460.26V567.83H235.23a111.24,111.24,0,0,1-12.74-21.67V445.3h88.58A15,15,0,0,1,326,460.26Z"/><path class="cls-1" d="M429.07,525.82A115.38,115.38,0,0,1,422.28,547,111.77,111.77,0,0,1,414.52,562H360.68C339.29,562,341,573.7,341,573.7v40.7a7.08,7.08,0,0,1-9.31,1l-.09-.07h0l-3.39-2.38-1.72-1.22s0-.6,0-1.74,0-3.14,0-5.59c0-.44,0-.9,0-1.37s0-.73,0-1.11c-.11-26.36-.41-99.79-.31-145,0-8.25.06-15.55.11-21.47,0-6.19.12-10.86.21-13.47,0-.39,0-.73,0-1a21.17,21.17,0,0,1,5.3-13,28.5,28.5,0,0,1,5.29-4.71,27.13,27.13,0,0,1,6.73-3.4l.88-.28a28.3,28.3,0,0,1,8.13-1.18h17.26a103.87,103.87,0,0,1,18.14,11.3,108.56,108.56,0,0,1,16.26,15.54c2,2.3,3.8,4.65,5.55,7.07h8.58a3.37,3.37,0,0,1,3.27,3.46v3.93a3.37,3.37,0,0,1-3.27,3.46h-1.64A118,118,0,0,1,429.07,525.82Z"/><path class="cls-4" d="M342.3,555.3v.77A5.16,5.16,0,0,1,342.3,555.3Z"/><path class="cls-2" d="M429.1,525.76A117.12,117.12,0,0,1,422.37,547H353.32c-9.73,0-10.9,6.1-11,8.29V421.81a12.4,12.4,0,0,1,6.43-11.07h0a11,11,0,0,1,2-.8,20.27,20.27,0,0,1,3-.58l.31,0c.6-.05,1-.05,1-.05h33.6a108.83,108.83,0,0,1,16.11,15.57c1.94,2.31,3.76,4.66,5.49,7.09h8.49A3.36,3.36,0,0,1,422,435.4v3.94a3.37,3.37,0,0,1-3.25,3.47h-1.62A119.52,119.52,0,0,1,429.1,525.76Z"/><path class="cls-3" d="M342.3,532.82v.65A3.7,3.7,0,0,1,342.3,532.82Z"/><path class="cls-3" d="M425.22,525.8H352.83c-9.3,0-10.42,5.17-10.53,7V419.88a10.33,10.33,0,0,1,5.87-9.23,10.12,10.12,0,0,1,2.22-.81,18.74,18.74,0,0,1,2.83-.48l.3,0c.57-.05.92-.05.92-.05h32.1a105.6,105.6,0,0,1,15.39,15.58q2.77,3.45,5.24,7.08h8.12a3.31,3.31,0,0,1,3.1,3.47v3.94a3.3,3.3,0,0,1-3.1,3.47h-1.55C427.22,468.2,431,498,425.22,525.8Z"/><rect class="cls-1" x="242.84" y="467.45" width="67.82" height="10.85" rx="3.46"/><rect class="cls-1" x="359.48" y="492.77" width="67.82" height="10.85" rx="3.46"/><rect class="cls-1" x="359.48" y="462.03" width="67.82" height="10.85" rx="3.46"/><path class="cls-1" d="M420.81,435.65v3.93a3.31,3.31,0,0,1-3.13,3.46H362.61a3.31,3.31,0,0,1-3.13-3.46v-3.93a3.38,3.38,0,0,1,2.58-3.4,2.51,2.51,0,0,1,.55-.06h55.07A3.31,3.31,0,0,1,420.81,435.65Z"/><rect class="cls-1" x="242.84" y="498.2" width="67.82" height="10.85" rx="3.46"/><rect class="cls-1" x="250.83" y="524.97" width="60.99" height="9.76" rx="3.46"/><text class="cls-5" transform="translate(471.77 507.71)">F<tspan class="cls-6" x="60.57" y="0">i</tspan><tspan class="cls-7" x="85.69" y="0">n</tspan><tspan class="cls-8" x="147.56" y="0">d My</tspan></text><text class="cls-9" transform="translate(471.77 600.07)">N<tspan class="cls-10" x="80.91" y="0">ot</tspan><tspan class="cls-11" x="196.31" y="0">e</tspan><tspan class="cls-12" x="265.34" y="0">s</tspan></text><path class="cls-1" d="M260.79,587.28H221.37v-38c3.28,1.77,6.53,3.58,9.75,5.47l.28.16c1.26.74,2.53,1.51,3.77,2.29h-2.63a23,23,0,0,0,5.25,7.14c3.32,2.85,7.83,4.2,10.76,7.45,1.24,1.37,2.18,3.06,3.76,4,.86.52,1.89.78,2.71,1.37h0a26.75,26.75,0,0,0,1.66,4.09A35.63,35.63,0,0,0,260.79,587.28Z"/><path class="cls-2" d="M255,577.18h-23.9V554.75l.28.16c1.26.74,2.53,1.51,3.77,2.29h-2.63a23,23,0,0,0,5.25,7.14c3.32,2.85,7.83,4.2,10.76,7.45,1.24,1.37,2.18,3.06,3.76,4C253.17,576.33,254.2,576.59,255,577.18Z"/><path class="cls-3" d="M235.17,557.2h-4v-2.45l.28.16C232.66,555.65,233.93,556.42,235.17,557.2Z"/><path class="cls-1" d="M450.81,406.67V550.22h-30.1a78.7,78.7,0,0,0,7.08-13.09,89.21,89.21,0,0,0,5.57-18.6,99.93,99.93,0,0,0,1.71-17.42c.22-19.18-4.62-38.14-11.72-56-3-7.52-6.46-15-11.65-21.16a91.25,91.25,0,0,0-7.18-7.41,82.42,82.42,0,0,1-7.12-7.48c-.64-.79-1.25-1.62-1.89-2.43Z"/><path class="cls-2" d="M441.69,416.58V537.13h-13.9a89.21,89.21,0,0,0,5.57-18.6,99.93,99.93,0,0,0,1.71-17.42c.22-19.18-4.62-38.14-11.72-56-3-7.52-6.46-15-11.65-21.16a91.25,91.25,0,0,0-7.18-7.41Z"/><path class="cls-3" d="M441.69,416.58V518.53h-8.33a99.93,99.93,0,0,0,1.71-17.42c.22-19.18-4.62-38.14-11.72-56-3-7.52-6.46-15-11.65-21.16a91.25,91.25,0,0,0-7.18-7.41Z"/><rect class="cls-1" x="416.29" y="433.49" width="12.47" height="9.52" rx="3.46"/><rect class="cls-13" x="416.91" y="575.49" width="39.61" height="95.63" transform="translate(-304.95 452.53) rotate(-42.02)"/><path class="cls-14" d="M489.7,681.78l-.34.3c-9.28,8.37-19.42,12.25-22.64,8.67L429.27,650.4l34.55-31.82,36.86,41.58C503.9,663.74,499,673.41,489.7,681.78Z"/><polygon class="cls-15" points="409.54 621.63 411.61 624.69 453.4 612.66 436.06 592.65 409.54 621.63"/><path class="cls-16" d="M434.93,525.82A110.88,110.88,0,0,1,427.75,547a109.06,109.06,0,0,1-8.2,14.92,112.71,112.71,0,0,1-77.7,49.77q-3.64.56-7.31.84-3.12.27-6.24.34l-1,0a112.54,112.54,0,0,1-59.62-15.83,110.47,110.47,0,0,1-13.91-9.82,111.59,111.59,0,0,1-12-11.53q-3.47-3.84-6.5-7.91A111.82,111.82,0,0,1,213,506.76a109.29,109.29,0,0,1,0-12.54,112.46,112.46,0,0,1,9.5-39.51q2.12-4.8,4.72-9.41a110,110,0,0,1,7.95-12.21,112.69,112.69,0,0,1,137.39-34.81,110.68,110.68,0,0,1,19.17,11.3,112.6,112.6,0,0,1,17.19,15.54q3.1,3.45,5.86,7.07A108.2,108.2,0,0,1,422.11,443,112.47,112.47,0,0,1,434.93,525.82Z"/><circle class="cls-17" cx="325.32" cy="500.43" r="102.56"/><g class="cls-18"><path class="cls-3" d="M255.42,476.08c8.53-31.57,37.12-54.16,70-54.18s61.88,22.78,70,54.49c2.29,8.94,16.32,6.05,14-2.9a87.64,87.64,0,0,0-78.61-65.74c-37-2.58-71.39,20-85.65,53.88a78.24,78.24,0,0,0-3.38,10.1c-2.41,8.88,11.23,13.3,13.65,4.35Z"/></g><circle class="cls-19" cx="405.08" cy="502.08" r="9.44" transform="translate(-184.99 762.84) rotate(-74.94)"/><path class="cls-20" d="M430.56,653.17l32.55-30.62a3,3,0,0,0,.32-4l-.3-.4a3,3,0,0,0-4.44-.34l-32.29,31a3,3,0,0,0,0,4.28l0,0A3,3,0,0,0,430.56,653.17Z"/><path class="cls-21" d="M423.39,529.33a103.74,103.74,0,0,1-114.58,74c-25.14-3.5-48.32-16.78-64.62-36.11a103.7,103.7,0,1,1,179.2-37.93c-1,3.46,4.38,5,5.36,1.54A109.24,109.24,0,1,0,373.47,598c26.84-13.58,46.9-38.34,55.28-67.14C429.75,527.41,424.39,525.88,423.39,529.33Z"/></svg>