<svg id="Layer_1" data-name="Layer 1" xmlns="http://www.w3.org/2000/svg" viewBox="0 0 1080 1080"><defs><style>.cls-1{fill:#242f57;}.cls-2{fill:#acc4ed;}.cls-18,.cls-3{fill:#fff;}.cls-4{fill:#7ee8d9;}.cls-5,.cls-9{font-size:108.66px;fill:#00446e;font-family:Nominee-Bold, Nominee;font-weight:700;}.cls-5{letter-spacing:-0.03em;}.cls-6{letter-spacing:-0.02em;}.cls-7{letter-spacing:-0.04em;}.cls-8{letter-spacing:-0.02em;}.cls-9{letter-spacing:-0.03em;}.cls-10{letter-spacing:-0.05em;}.cls-11{letter-spacing:-0.04em;}.cls-12{fill:#909ba0;}.cls-13{fill:#2e4661;}.cls-14{fill:#272525;opacity:0.12;}.cls-15{fill:none;stroke:#59595b;stroke-miterlimit:10;stroke-width:11px;}.cls-16{fill:#b3d1e2;opacity:0.1;}.cls-17{opacity:0.22;}.cls-18{opacity:0.31;}.cls-19{fill:#a36652;}.cls-20{fill:#6a8678;}</style></defs><title>sArtboard 2</title><g id="right_1" data-name="right 1"><path class="cls-1" d="M319.84,450.41V615.22a.88.88,0,0,1-1.29.77l-1.34-.69h0l-4.58-2.36-5.75-3-12.74-6.58h0l-5.27-2.72h0l-6.86-3.55H253a110.47,110.47,0,0,1-13.91-9.82,111.59,111.59,0,0,1-12-11.53q-3.47-3.84-6.5-7.91a111.82,111.82,0,0,1-22.24-61.07V494.22a112.46,112.46,0,0,1,9.5-39.51V445.3h4.72a110,110,0,0,1,8-12.21h82.47a16.6,16.6,0,0,1,8.58,2.29c.33.2.66.41,1,.62A17.43,17.43,0,0,1,319.84,450.41Z"/><path class="cls-2" d="M312.23,602.19l-.5-.32-22.56-14.6h-50.1a111.59,111.59,0,0,1-12-11.53q-3.47-3.84-6.5-7.91a111.24,111.24,0,0,1-12.74-21.67V445.3h89.52a14,14,0,0,1,8.34,2.64,14.85,14.85,0,0,1,5.75,8.91,16.29,16.29,0,0,1,.38,3.49Z"/><path class="cls-3" d="M311.32,460.26V567.83H220.53a111.24,111.24,0,0,1-12.74-21.67V445.3h88.58A15,15,0,0,1,311.32,460.26Z"/><path class="cls-1" d="M414.36,525.82A115.38,115.38,0,0,1,407.57,547,111.77,111.77,0,0,1,399.81,562H346c-21.4,0-19.68,11.75-19.68,11.75v40.7a7.08,7.08,0,0,1-9.31,1l-.1-.07h0l-3.38-2.38-1.73-1.22s0-.6,0-1.74,0-3.14,0-5.59c0-.44,0-.9,0-1.37s0-.73,0-1.11c-.12-26.36-.42-99.79-.32-145,0-8.25.06-15.55.11-21.47.05-6.19.12-10.86.22-13.47q0-.59,0-1a21.17,21.17,0,0,1,5.3-13,28.82,28.82,0,0,1,5.29-4.71,27,27,0,0,1,6.74-3.4l.88-.28a28.19,28.19,0,0,1,8.12-1.18h17.26a103.51,103.51,0,0,1,18.14,11.3,108.56,108.56,0,0,1,16.26,15.54q2.94,3.45,5.55,7.07h8.58a3.37,3.37,0,0,1,3.27,3.46v3.93a3.37,3.37,0,0,1-3.27,3.46h-1.64A118,118,0,0,1,414.36,525.82Z"/><path class="cls-4" d="M327.6,555.3v.77A5.16,5.16,0,0,1,327.6,555.3Z"/><path class="cls-2" d="M414.39,525.76A117.12,117.12,0,0,1,407.66,547H338.61c-9.73,0-10.9,6.1-11,8.29V421.81A12.39,12.39,0,0,1,334,410.74h0a10.85,10.85,0,0,1,2-.8,19.78,19.78,0,0,1,3-.58l.31,0c.6-.05,1-.05,1-.05h33.6A108.83,108.83,0,0,1,390,424.85c1.94,2.31,3.77,4.66,5.49,7.09H404a3.36,3.36,0,0,1,3.24,3.46v3.94a3.36,3.36,0,0,1-3.24,3.47h-1.62A119.46,119.46,0,0,1,414.39,525.76Z"/><path class="cls-3" d="M327.6,532.82v.65A3.7,3.7,0,0,1,327.6,532.82Z"/><path class="cls-3" d="M410.51,525.8H338.12c-9.3,0-10.42,5.17-10.52,7V419.88a10.34,10.34,0,0,1,5.86-9.23,10.12,10.12,0,0,1,2.22-.81,18.64,18.64,0,0,1,2.84-.48l.29,0c.57-.05.92-.05.92-.05h32.1a105.6,105.6,0,0,1,15.39,15.58q2.77,3.45,5.24,7.08h8.12a3.31,3.31,0,0,1,3.1,3.47v3.94a3.3,3.3,0,0,1-3.1,3.47H399C412.52,468.2,416.24,498,410.51,525.8Z"/><rect class="cls-1" x="228.13" y="467.45" width="67.82" height="10.85" rx="3.46"/><rect class="cls-1" x="344.78" y="492.77" width="67.82" height="10.85" rx="3.46"/><rect class="cls-1" x="344.78" y="462.03" width="67.82" height="10.85" rx="3.46"/><path class="cls-1" d="M406.11,435.65v3.93A3.31,3.31,0,0,1,403,443H347.9a3.31,3.31,0,0,1-3.12-3.46v-3.93a3.37,3.37,0,0,1,2.57-3.4,2.51,2.51,0,0,1,.55-.06H403A3.31,3.31,0,0,1,406.11,435.65Z"/><rect class="cls-1" x="228.13" y="498.2" width="67.82" height="10.85" rx="3.46"/><rect class="cls-1" x="236.12" y="524.97" width="60.99" height="9.76" rx="3.46"/><text class="cls-5" transform="translate(457.07 507.71)">F<tspan class="cls-6" x="65" y="0">i</tspan><tspan class="cls-7" x="92.59" y="0">n</tspan><tspan class="cls-8" x="158.96" y="0">d My</tspan></text><text class="cls-9" transform="translate(457.07 600.07)">N<tspan class="cls-10" x="80.91" y="0">ot</tspan><tspan class="cls-11" x="196.31" y="0">e</tspan><tspan class="cls-8" x="265.34" y="0">s</tspan></text><path class="cls-1" d="M246.09,587.28H206.66v-38c3.28,1.77,6.54,3.58,9.75,5.47l.28.16c1.26.74,2.53,1.51,3.78,2.29h-2.64a23,23,0,0,0,5.25,7.14c3.32,2.85,7.83,4.2,10.76,7.45,1.24,1.37,2.18,3.06,3.76,4,.87.52,1.89.78,2.71,1.37h0a25.82,25.82,0,0,0,1.67,4.09A35,35,0,0,0,246.09,587.28Z"/><path class="cls-2" d="M240.31,577.18h-23.9V554.75l.28.16c1.26.74,2.53,1.51,3.78,2.29h-2.64a23,23,0,0,0,5.25,7.14c3.32,2.85,7.83,4.2,10.76,7.45,1.24,1.37,2.18,3.06,3.76,4C238.47,576.33,239.49,576.59,240.31,577.18Z"/><path class="cls-3" d="M220.47,557.2h-4.06v-2.45l.28.16C218,555.65,219.22,556.42,220.47,557.2Z"/><path class="cls-1" d="M436.11,406.67V550.22H406a78,78,0,0,0,7.08-13.09,89.84,89.84,0,0,0,5.58-18.6,99.92,99.92,0,0,0,1.7-17.42c.22-19.18-4.62-38.14-11.72-56-3-7.52-6.46-15-11.64-21.16a94.74,94.74,0,0,0-7.18-7.41,81.17,81.17,0,0,1-7.13-7.48c-.64-.79-1.25-1.62-1.88-2.43Z"/><path class="cls-2" d="M427,416.58V537.13H413.08a89.84,89.84,0,0,0,5.58-18.6,99.92,99.92,0,0,0,1.7-17.42c.22-19.18-4.62-38.14-11.72-56-3-7.52-6.46-15-11.64-21.16a94.74,94.74,0,0,0-7.18-7.41Z"/><path class="cls-3" d="M427,416.58V518.53h-8.33a99.92,99.92,0,0,0,1.7-17.42c.22-19.18-4.62-38.14-11.72-56-3-7.52-6.46-15-11.64-21.16a94.74,94.74,0,0,0-7.18-7.41Z"/><rect class="cls-1" x="401.58" y="433.49" width="12.47" height="9.52" rx="3.46"/><rect class="cls-12" x="402.2" y="575.49" width="39.61" height="95.63" transform="translate(-308.73 442.69) rotate(-42.02)"/><path class="cls-13" d="M475,681.78l-.34.3c-9.28,8.37-19.41,12.25-22.64,8.67L414.57,650.4l34.54-31.82L486,660.16C489.19,663.74,484.28,673.41,475,681.78Z"/><polygon class="cls-14" points="394.83 621.63 396.9 624.69 438.69 612.66 421.35 592.65 394.83 621.63"/><path class="cls-15" d="M420.23,525.82A110.88,110.88,0,0,1,413.05,547a109.06,109.06,0,0,1-8.2,14.92,112.71,112.71,0,0,1-77.7,49.77q-3.64.56-7.31.84-3.12.27-6.24.34l-1,0A112.54,112.54,0,0,1,253,597.09a110.47,110.47,0,0,1-13.91-9.82,111.59,111.59,0,0,1-12-11.53q-3.47-3.84-6.5-7.91a111.82,111.82,0,0,1-22.24-61.07,109.29,109.29,0,0,1,0-12.54,112.46,112.46,0,0,1,9.5-39.51q2.11-4.8,4.72-9.41a110,110,0,0,1,8-12.21,112.69,112.69,0,0,1,137.39-34.81A110.68,110.68,0,0,1,377,409.58a112.6,112.6,0,0,1,17.19,15.54q3.1,3.45,5.86,7.07A108.2,108.2,0,0,1,407.41,443,112.47,112.47,0,0,1,420.23,525.82Z"/><circle class="cls-16" cx="310.62" cy="500.43" r="102.56"/><g class="cls-17"><path class="cls-3" d="M240.71,476.08c8.53-31.57,37.12-54.16,70-54.18s61.88,22.78,70,54.49c2.29,8.94,16.33,6.05,14-2.9a87.62,87.62,0,0,0-78.61-65.74c-37-2.58-71.39,20-85.65,53.88a79.8,79.8,0,0,0-3.38,10.1c-2.4,8.88,11.23,13.3,13.65,4.35Z"/></g><circle class="cls-18" cx="390.38" cy="502.08" r="9.44" transform="translate(-195.88 748.63) rotate(-74.94)"/><path class="cls-19" d="M415.85,653.17l32.55-30.62a3,3,0,0,0,.33-4l-.31-.4a3,3,0,0,0-4.44-.34l-32.29,31a3,3,0,0,0-.05,4.28l0,0A3,3,0,0,0,415.85,653.17Z"/><path class="cls-20" d="M408.68,529.33a103.73,103.73,0,0,1-114.57,74c-25.14-3.5-48.33-16.78-64.63-36.11a103.7,103.7,0,0,1,139.65-151c20.1,14.13,34.45,35.64,40.5,59.38a103.73,103.73,0,0,1-.95,53.73c-1,3.46,4.38,5,5.36,1.54A109.24,109.24,0,1,0,358.76,598c26.84-13.58,46.9-38.34,55.28-67.14C415.05,527.41,409.69,525.88,408.68,529.33Z"/></g></svg>